<svg xmlns="http://www.w3.org/2000/svg" viewBox="0 0 170 36" fill="none">
  <path d="M21.1 10.4c.92-1.13 1.54-2.7 1.37-4.27-1.33.05-2.95.88-3.9 2.01-.86.98-1.61 2.58-1.41 4.1 1.48.12 3-.75 3.94-1.84Zm1.35 2.2c-2.15-.12-3.98 1.2-5 1.2-1.05 0-2.66-1.13-4.38-1.1-2.26.03-4.36 1.31-5.51 3.33-2.36 4.08-.6 10.12 1.67 13.4 1.11 1.61 2.44 3.4 4.19 3.34 1.67-.07 2.3-1.08 4.31-1.08 2 0 2.58 1.08 4.34 1.04 1.8-.03 2.93-1.62 4.03-3.24 1.28-1.86 1.8-3.67 1.83-3.76-.04-.02-3.52-1.35-3.56-5.36-.03-3.35 2.74-4.95 2.86-5.02-1.55-2.27-3.98-2.52-4.78-2.6Z" fill="#223B78"></path>
  <text x="48" y="14" fill="#223B78" font-size="8" font-family="Arial, sans-serif">Download on the</text>
  <text x="48" y="25" fill="#223B78" font-size="15" font-weight="700" font-family="Arial, sans-serif">App Store</text>
</svg>