<svg width="20" height="20" viewBox="0 0 24 24" fill="none" xmlns="http://www.w3.org/2000/svg">
  <path d="M7.8 2H16.2C19.4 2 22 4.6 22 7.8V16.2C22 19.4 19.4 22 16.2 22H7.8C4.6 22 2 19.4 2 16.2V7.8C2 4.6 4.6 2 7.8 2Z" stroke="#1F325C" stroke-width="1.8"></path>
  <path d="M12 7.35C14.57 7.35 16.65 9.43 16.65 12C16.65 14.57 14.57 16.65 12 16.65C9.43 16.65 7.35 14.57 7.35 12C7.35 9.43 9.43 7.35 12 7.35Z" stroke="#1F325C" stroke-width="1.8"></path>
  <path d="M17.2 6.65H17.22" stroke="#1F325C" stroke-width="2.4" stroke-linecap="round"></path>
</svg>