<svg width="20" height="20" viewBox="0 0 24 24" fill="none" xmlns="http://www.w3.org/2000/svg">
  <path d="M6.94 8.98H3.38V22H6.94V8.98Z" fill="#1F325C"></path>
  <path d="M5.16 2.5C3.99 2.5 3.05 3.43 3.05 4.56C3.05 5.7 3.99 6.62 5.16 6.62C6.32 6.62 7.26 5.7 7.26 4.56C7.26 3.43 6.32 2.5 5.16 2.5Z" fill="#1F325C"></path>
  <path d="M22 14.54C22 11.04 20.13 9.41 17.64 9.41C16.05 9.41 15.05 10.28 14.24 11.28H14.19V9.68H10.78V22H14.34V15.9C14.34 14.29 14.64 12.74 16.64 12.74C18.6 12.74 18.62 14.58 18.62 16V22H22V14.54Z" fill="#1F325C"></path>
</svg>