<svg width="20" height="20" viewBox="0 0 24 24" fill="#162033" xmlns="http://www.w3.org/2000/svg">
  <path d="M16.505 13.013C16.495 11.222 17.972 10.355 18.039 10.315C17.205 9.095 15.909 8.927 15.444 8.907C14.339 8.795 13.287 9.558 12.731 9.558C12.174 9.558 11.313 8.923 10.397 8.94C9.195 8.958 8.087 9.64 7.469 10.722C6.22 12.889 7.149 16.101 8.366 17.863C8.961 18.723 9.671 19.69 10.602 19.655C11.499 19.619 11.837 19.074 12.922 19.074C14.006 19.074 14.311 19.655 15.26 19.637C16.225 19.619 16.837 18.76 17.426 17.898C18.109 16.899 18.391 15.931 18.407 15.882C18.386 15.872 16.516 15.156 16.505 13.013Z"></path>
  <path d="M14.721 7.742C15.214 7.145 15.546 6.315 15.456 5.49C14.745 5.519 13.885 5.964 13.375 6.56C12.917 7.09 12.516 7.935 12.623 8.744C13.416 8.806 14.229 8.339 14.721 7.742Z"></path>
</svg>