<svg width="20" height="20" viewBox="0 0 24 24" fill="none" xmlns="http://www.w3.org/2000/svg">
  <path d="M4.25 4.75L19.75 19.25" stroke="currentColor" stroke-width="1.8" stroke-linecap="round" stroke-linejoin="round"></path>
  <path d="M9.1 6.65C10.004 6.386 10.971 6.25 12 6.25C15.646 6.25 18.543 8.443 20.25 12C19.643 13.265 18.886 14.358 17.982 15.254" stroke="currentColor" stroke-width="1.8" stroke-linecap="round" stroke-linejoin="round"></path>
  <path d="M14.12 14.32C13.57 14.805 12.847 15.083 12.056 15.083C10.33 15.083 8.932 13.685 8.932 11.959C8.932 11.229 9.183 10.558 9.603 10.027" stroke="currentColor" stroke-width="1.8" stroke-linecap="round" stroke-linejoin="round"></path>
  <path d="M6.584 8.21C5.466 9.134 4.518 10.411 3.75 12C5.456 15.557 8.354 17.75 12 17.75C13.17 17.75 14.263 17.524 15.263 17.101" stroke="currentColor" stroke-width="1.8" stroke-linecap="round" stroke-linejoin="round"></path>
</svg>