<svg width="20" height="20" viewBox="0 0 24 24" fill="none" xmlns="http://www.w3.org/2000/svg">
  <path d="M21 12.2045C21 11.5664 20.9427 10.9527 20.8364 10.3636H12.1836V13.9182H17.1273C16.9145 15.0655 16.2673 16.04 15.2945 16.6782V18.9845H18.2655C20.0036 17.3855 21 15.0327 21 12.2045Z" fill="#4285F4"></path>
  <path d="M12.1836 21.1818C14.6655 21.1818 16.7509 20.3582 18.2655 18.9845L15.2945 16.6782C14.4709 17.2309 13.4182 17.5582 12.1836 17.5582C9.78909 17.5582 7.76 15.9418 7.03636 13.7691H3.96545V16.1509C5.47091 19.1418 8.56727 21.1818 12.1836 21.1818Z" fill="#34A853"></path>
  <path d="M7.03636 13.7691C6.85273 13.2164 6.74727 12.6273 6.74727 12.0182C6.74727 11.4091 6.85273 10.82 7.03636 10.2673V7.88545H3.96545C3.34364 9.12455 3 10.5273 3 12.0182C3 13.5091 3.34364 14.9118 3.96545 16.1509L7.03636 13.7691Z" fill="#FBBC05"></path>
  <path d="M12.1836 6.47818C13.5327 6.47818 14.7445 6.94182 15.6964 7.85273L18.3309 5.21818C16.7455 3.74182 14.66 2.83636 12.1836 2.83636C8.56727 2.83636 5.47091 4.87636 3.96545 7.88545L7.03636 10.2673C7.76 8.09455 9.78909 6.47818 12.1836 6.47818Z" fill="#EA4335"></path>
</svg>