<svg width="20" height="20" viewBox="0 0 20 20" xmlns="http://www.w3.org/2000/svg">
  <path d="M11.25 2.5C11.25 2.08579 11.5858 1.75 12 1.75H15C15.4142 1.75 15.75 2.08579 15.75 2.5V5.25H11.25V2.5ZM10.75 6.75H16.25V16.25C16.25 17.3546 15.3546 18.25 14.25 18.25H12.75C11.6454 18.25 10.75 17.3546 10.75 16.25V6.75ZM4.25 6.25C4.25 5.14543 5.14543 4.25 6.25 4.25H7.25C8.35457 4.25 9.25 5.14543 9.25 6.25V16.25C9.25 17.3546 8.35457 18.25 7.25 18.25H6.25C5.14543 18.25 4.25 17.3546 4.25 16.25V6.25ZM5.75 8.75H7.75V6.25C7.75 5.97386 7.52614 5.75 7.25 5.75H6.25C5.97386 5.75 5.75 5.97386 5.75 6.25V8.75Z"></path>
</svg>