<svg width="20" height="20" viewBox="0 0 20 20" xmlns="http://www.w3.org/2000/svg">
  <path d="M3 4.5C3 3.67157 3.67157 3 4.5 3H7.5C8.32843 3 9 3.67157 9 4.5V7.5C9 8.32843 8.32843 9 7.5 9H4.5C3.67157 9 3 8.32843 3 7.5V4.5ZM11 4.5C11 3.67157 11.6716 3 12.5 3H15.5C16.3284 3 17 3.67157 17 4.5V7.5C17 8.32843 16.3284 9 15.5 9H12.5C11.6716 9 11 8.32843 11 7.5V4.5ZM3 12.5C3 11.6716 3.67157 11 4.5 11H7.5C8.32843 11 9 11.6716 9 12.5V15.5C9 16.3284 8.32843 17 7.5 17H4.5C3.67157 17 3 16.3284 3 15.5V12.5ZM11 12.5C11 11.6716 11.6716 11 12.5 11H15.5C16.3284 11 17 11.6716 17 12.5V15.5C17 16.3284 16.3284 17 15.5 17H12.5C11.6716 17 11 16.3284 11 15.5V12.5Z"></path>
</svg>