<svg width="20" height="20" viewBox="0 0 20 20" xmlns="http://www.w3.org/2000/svg">
  <path d="M10 2.5C11.7949 2.5 13.25 3.95507 13.25 5.75C13.25 7.54493 11.7949 9 10 9C8.20507 9 6.75 7.54493 6.75 5.75C6.75 3.95507 8.20507 2.5 10 2.5ZM4.25 16.25C4.25 12.9363 6.93629 10.25 10.25 10.25H11.25C14.2876 10.25 16.75 12.7124 16.75 15.75V16.25C16.75 16.9404 16.1904 17.5 15.5 17.5H5.5C4.80964 17.5 4.25 16.9404 4.25 16.25ZM4.75 7.25C3.64543 7.25 2.75 6.35457 2.75 5.25C2.75 4.14543 3.64543 3.25 4.75 3.25C5.85457 3.25 6.75 4.14543 6.75 5.25C6.75 6.35457 5.85457 7.25 4.75 7.25Z"></path>
</svg>