<svg width="20" height="20" viewBox="0 0 20 20" xmlns="http://www.w3.org/2000/svg">
  <path d="M10 2.5C5.85786 2.5 2.5 5.85786 2.5 10C2.5 14.1421 5.85786 17.5 10 17.5C14.1421 17.5 17.5 14.1421 17.5 10C17.5 5.85786 14.1421 2.5 10 2.5ZM4.13 9.25C4.29 7.95 4.87 6.78 5.73 5.88L8.6 8.75L7.35 10H4.06C4.08 9.75 4.1 9.5 4.13 9.25ZM5.16 13.38C4.73 12.82 4.41 12.18 4.22 11.5H7.97L9.25 12.78V15.94C7.6 15.75 6.15 14.82 5.16 13.38ZM10.75 15.94V12.78L12.03 11.5H15.78C15.59 12.18 15.27 12.82 14.84 13.38C13.85 14.82 12.4 15.75 10.75 15.94ZM12.65 10L11.4 8.75L14.27 5.88C15.13 6.78 15.71 7.95 15.87 9.25C15.9 9.5 15.92 9.75 15.94 10H12.65ZM10 7.69L6.88 4.57C7.79 4.2 8.83 4 10 4C11.17 4 12.21 4.2 13.12 4.57L10 7.69Z"></path>
</svg>