<svg width="20" height="20" viewBox="0 0 20 20" fill="none" xmlns="http://www.w3.org/2000/svg">
  <path d="M10 17.5C14.1421 17.5 17.5 14.1421 17.5 10C17.5 5.85786 14.1421 2.5 10 2.5C5.85786 2.5 2.5 5.85786 2.5 10C2.5 14.1421 5.85786 17.5 10 17.5Z" stroke="currentColor" stroke-width="1.7" stroke-linecap="round" stroke-linejoin="round"></path>
  <path d="M2.9 7.75H17.1" stroke="currentColor" stroke-width="1.7" stroke-linecap="round" stroke-linejoin="round"></path>
  <path d="M2.9 12.25H17.1" stroke="currentColor" stroke-width="1.7" stroke-linecap="round" stroke-linejoin="round"></path>
  <path d="M10 2.5C11.875 4.55 12.85 7.15 12.85 10C12.85 12.85 11.875 15.45 10 17.5C8.125 15.45 7.15 12.85 7.15 10C7.15 7.15 8.125 4.55 10 2.5Z" stroke="currentColor" stroke-width="1.7" stroke-linecap="round" stroke-linejoin="round"></path>
</svg>