<svg width="64" height="64" viewBox="0 0 64 64" fill="none" xmlns="http://www.w3.org/2000/svg">
  <rect x="6" y="6" width="52" height="52" rx="18" fill="#1F325C"></rect>
  <path d="M20 24.5C20 19.8056 23.8056 16 28.5 16H39.5C42.5376 16 45 18.4624 45 21.5C45 24.5376 42.5376 27 39.5 27H27.5C25.567 27 24 28.567 24 30.5C24 32.433 25.567 34 27.5 34H35.5C40.7467 34 45 38.2533 45 43.5C45 48.7467 40.7467 53 35.5 53H24.5C22.0147 53 20 50.9853 20 48.5C20 46.0147 22.0147 44 24.5 44H36.5C38.433 44 40 42.433 40 40.5C40 38.567 38.433 37 36.5 37H28.5C23.8056 37 20 33.1944 20 28.5V24.5Z" fill="#F6F7FB"></path>
  <path d="M46 14L50 18L34 34L30 30L46 14Z" fill="#B08D57"></path>
</svg>