<svg width="20" height="20" viewBox="0 0 20 20" fill="none" xmlns="http://www.w3.org/2000/svg">
  <path d="M7.5 2.5H12.5L13.3333 4.16667H16.25C16.5952 4.16667 16.875 4.44649 16.875 4.79167C16.875 5.13684 16.5952 5.41667 16.25 5.41667H3.75C3.40482 5.41667 3.125 5.13684 3.125 4.79167C3.125 4.44649 3.40482 4.16667 3.75 4.16667H6.66667L7.5 2.5Z" fill="currentColor"></path>
  <path d="M5.41667 6.66667C5.41667 6.20643 5.78976 5.83334 6.25 5.83334H13.75C14.2102 5.83334 14.5833 6.20643 14.5833 6.66667V14.1667C14.5833 15.5474 13.464 16.6667 12.0833 16.6667H7.91667C6.53595 16.6667 5.41667 15.5474 5.41667 14.1667V6.66667ZM8.125 8.54167C7.77982 8.54167 7.5 8.82149 7.5 9.16667V13.3333C7.5 13.6785 7.77982 13.9583 8.125 13.9583C8.47018 13.9583 8.75 13.6785 8.75 13.3333V9.16667C8.75 8.82149 8.47018 8.54167 8.125 8.54167Z" fill="currentColor"></path>
  <path d="M11.875 8.54167C11.5298 8.54167 11.25 8.82149 11.25 9.16667V13.3333C11.25 13.6785 11.5298 13.9583 11.875 13.9583C12.2202 13.9583 12.5 13.6785 12.5 13.3333V9.16667C12.5 8.82149 12.2202 8.54167 11.875 8.54167Z" fill="currentColor"></path>
</svg>