<svg width="20" height="20" viewBox="0 0 20 20" xmlns="http://www.w3.org/2000/svg">
  <path d="M7.25 3.25C7.25 2.83579 7.58579 2.5 8 2.5H12C12.4142 2.5 12.75 2.83579 12.75 3.25V4H15.75C16.1642 4 16.5 4.33579 16.5 4.75C16.5 5.16421 16.1642 5.5 15.75 5.5H4.25C3.83579 5.5 3.5 5.16421 3.5 4.75C3.5 4.33579 3.83579 4 4.25 4H7.25V3.25Z"></path>
  <path d="M5.5 7C5.5 6.58579 5.83579 6.25 6.25 6.25H13.75C14.1642 6.25 14.5 6.58579 14.5 7V14.25C14.5 16.0449 13.0449 17.5 11.25 17.5H8.75C6.95507 17.5 5.5 16.0449 5.5 14.25V7ZM8.25 8.75C7.83579 8.75 7.5 9.08579 7.5 9.5V14C7.5 14.4142 7.83579 14.75 8.25 14.75C8.66421 14.75 9 14.4142 9 14V9.5C9 9.08579 8.66421 8.75 8.25 8.75ZM11.75 8.75C11.3358 8.75 11 9.08579 11 9.5V14C11 14.4142 11.3358 14.75 11.75 14.75C12.1642 14.75 12.5 14.4142 12.5 14V9.5C12.5 9.08579 12.1642 8.75 11.75 8.75Z"></path>
</svg>